<?xml version="1.0" encoding="UTF-8" standalone="no"?>
<!-- Created with Inkscape (http://www.inkscape.org/) -->

<svg
   width="8.4666672mm"
   height="8.4666595mm"
   viewBox="0 0 8.4666672 8.4666595"
   version="1.1"
   id="svg5"
   xml:space="preserve"
   xmlns="http://www.w3.org/2000/svg"
   xmlns:svg="http://www.w3.org/2000/svg"><defs
     id="defs2" /><g
     id="layer1"
     transform="translate(-108.03411,-138.73362)"><circle
       style="fill:#ee80d9;fill-opacity:1;stroke-width:0.264583"
       id="path111"
       cx="112.26743"
       cy="142.96695"
       r="4.2333331" /><path
       fill="#000000"
       d="m 112.25122,141.11455 -1.61016,0.81419 1.57476,0.0374 z m 0.14304,0.006 -0.0354,0.85167 1.56958,0.0971 z m 0.36903,0.40871 c 0.0249,0.002 0.0517,0.008 0.0816,0.0199 0.0203,0.008 0.0361,0.0165 0.0491,0.0262 0.013,0.01 0.0242,0.0207 0.0318,0.0312 0.0132,0.0167 0.0183,0.0325 0.0212,0.0501 0.0221,-0.013 0.0474,-0.0214 0.0746,-0.027 0.0307,-0.005 0.0645,-2.4e-4 0.0989,0.0142 0.0405,0.0161 0.0711,0.036 0.0898,0.0598 0.0187,0.0238 0.0294,0.0482 0.0328,0.0732 0.002,0.0135 9.9e-4,0.027 -5.4e-4,0.0394 -9.9e-4,0.0134 -0.006,0.0256 -0.0122,0.0364 -0.005,0.0116 -0.0117,0.0231 -0.022,0.0329 -0.01,0.01 -0.0197,0.0196 -0.0325,0.0269 -0.023,0.0147 -0.0503,0.0238 -0.0827,0.0272 -0.0323,0.004 -0.0688,-0.003 -0.10938,-0.0189 -0.0352,-0.0141 -0.0613,-0.0326 -0.0782,-0.056 -0.013,-0.0211 -0.0242,-0.0443 -0.0277,-0.0672 -0.0183,0.011 -0.0383,0.018 -0.0626,0.0201 -0.0271,0.004 -0.058,-0.002 -0.0951,-0.0167 -0.0212,-0.009 -0.0396,-0.0182 -0.0543,-0.0283 -0.0158,-0.0109 -0.0277,-0.0217 -0.0371,-0.0336 -0.0179,-0.0211 -0.0268,-0.0434 -0.0286,-0.0669 -3.5e-4,-0.0229 0.004,-0.0443 0.0125,-0.0635 0.005,-0.01 0.0124,-0.0197 0.0201,-0.03 0.009,-0.009 0.0186,-0.0166 0.0288,-0.0244 0.0221,-0.013 0.0474,-0.0213 0.0772,-0.0245 0.008,-5.7e-4 0.0161,-3.1e-4 0.0251,8e-5 z m -0.88773,0.004 c 0.0429,0.002 0.0963,0.0323 0.0772,0.0823 -0.038,0.0526 -0.096,0.0916 -0.16575,0.10929 -0.0669,0.0168 -0.13554,0.0289 -0.19731,0.006 -0.026,-0.0192 -0.11316,-0.0788 -0.133,-0.0324 -0.0157,0.11964 0.005,0.10242 -0.10415,0.13552 l 0.008,-0.19154 c 0.0907,-0.0267 0.18922,-0.0274 0.27673,0.022 0.0702,0.036 0.16937,0.0191 0.21646,-0.0364 0.011,-0.0507 -0.0701,-0.0384 -0.10621,-0.0305 -0.0242,-0.0663 0.0725,-0.0632 0.11914,-0.0649 0.003,-1.8e-4 0.005,-3e-5 0.009,7e-5 z m 0.89706,0.0735 c -0.008,-2.6e-4 -0.0161,3e-4 -0.0251,0.002 -0.0217,0.004 -0.0382,0.0154 -0.0471,0.0347 -0.01,0.0186 -0.009,0.037 0.003,0.0542 0.0114,0.018 0.0283,0.0305 0.052,0.0399 0.0255,0.0101 0.0478,0.0132 0.0713,0.009 0.0225,-0.003 0.0391,-0.015 0.048,-0.0337 0.01,-0.0192 0.009,-0.0376 -0.005,-0.0552 -0.0113,-0.0174 -0.0301,-0.0309 -0.0556,-0.0411 -0.0141,-0.006 -0.0283,-0.009 -0.0427,-0.009 z m 0.25507,0.0907 c -0.0101,3e-5 -0.0197,0.001 -0.0288,0.004 -0.0244,0.008 -0.0412,0.0215 -0.0501,0.0403 -0.01,0.0192 -0.01,0.0396 9.9e-4,0.0597 0.01,0.0208 0.0307,0.0374 0.0624,0.0506 0.0256,0.0101 0.0515,0.0124 0.0767,0.008 0.0252,-0.005 0.0429,-0.0194 0.0537,-0.0417 0.0108,-0.0224 0.0116,-0.0429 -0.002,-0.063 -0.0128,-0.0199 -0.0316,-0.0357 -0.0572,-0.0458 -0.0203,-0.008 -0.0389,-0.0118 -0.056,-0.0124 z m -0.87078,0.39313 -1.67319,-0.0393 0.58078,1.54169 z m 0.25034,0.0107 0.96745,1.59049 0.69949,-1.48695 z m -0.12761,0.0535 -1.11135,1.52674 2.09296,0.0895 z m 1.03711,0.17332 0.15779,0.34095 0.0654,-0.0231 0.0336,0.0738 -0.0645,0.0225 0.0517,0.11229 -0.0945,0.0329 -0.0517,-0.1123 -0.27445,0.0952 -0.032,-0.0698 c 0.0155,-0.0717 0.0485,-0.21655 0.0978,-0.43382 l 0.0164,-0.005 0.008,-0.002 0.0282,-0.0106 z m -2.02359,0.009 0.0116,4.7e-4 c 0.0259,0.001 0.0491,0.006 0.0692,0.0156 0.0607,0.0277 0.0929,0.07 0.0996,0.12458 0.005,0.0546 -0.014,0.11971 -0.0591,0.19484 -0.0451,0.0743 -0.0948,0.12569 -0.1479,0.1533 -0.0549,0.0276 -0.11129,0.0275 -0.17108,6.9e-4 -0.0517,-0.0242 -0.0818,-0.0562 -0.0909,-0.0975 -0.009,-0.042 -0.005,-0.0766 0.0124,-0.10561 l 0.0844,0.0383 c -0.009,0.013 -0.011,0.0294 -0.009,0.0491 0.002,0.0205 0.0159,0.036 0.0428,0.049 0.0272,0.0122 0.0541,0.0125 0.0823,0.002 0.0282,-0.01 0.058,-0.0385 0.0904,-0.085 0.005,-0.008 0.0104,-0.0161 0.0163,-0.0252 -0.0165,0.008 -0.0328,0.0143 -0.0501,0.0182 -0.0289,0.006 -0.0591,0.001 -0.0917,-0.0129 -0.0378,-0.0173 -0.0652,-0.046 -0.0815,-0.0869 -0.0167,-0.0402 -0.0101,-0.0846 0.0199,-0.13439 l 8.7e-4,-7.4e-4 c 0.0105,-0.0177 0.0229,-0.0337 0.0376,-0.0456 0.0131,-0.0129 0.0288,-0.0231 0.0442,-0.0311 0.0283,-0.0137 0.0583,-0.0212 0.0896,-0.0206 z m -0.84833,0.004 -0.0565,1.35953 0.55616,-0.0211 z m 3.64769,0.15601 -0.60806,1.29111 0.55155,0.0684 z m -0.82183,-0.0302 c -0.0174,0.0755 -0.0395,0.17525 -0.0679,0.29749 l 0.17809,-0.0615 -0.0674,-0.14363 z m -1.96555,-0.0519 c -0.0134,1.9e-4 -0.026,0.002 -0.0388,0.007 -0.0272,0.01 -0.0467,0.0255 -0.0602,0.0486 -0.0154,0.0261 -0.0209,0.0502 -0.0139,0.0749 0.008,0.0238 0.0225,0.0411 0.0462,0.0523 0.0246,0.0113 0.0506,0.0124 0.076,0.003 0.0254,-0.009 0.0468,-0.0263 0.0631,-0.0524 0.0134,-0.0222 0.0172,-0.0457 0.0119,-0.0703 -0.006,-0.0248 -0.0216,-0.0426 -0.0461,-0.0539 -0.0123,-0.006 -0.0256,-0.009 -0.038,-0.01 z m 0.90708,0.41389 0.13949,0.006 -0.0275,0.66093 -0.13947,-0.006 0.0229,-0.55103 c -0.0806,0.0422 -0.13991,0.0695 -0.17709,0.0805 l -0.0572,0.0195 0.005,-0.1099 0.0572,-0.0196 c 0.0373,-0.0125 0.0966,-0.0383 0.1771,-0.0805 z m 1.80127,0.12576 0.004,2.3e-4 c 0.032,0.003 0.0487,0.0571 0.0383,0.0889 -0.007,0.14595 -0.003,0.30811 -0.10476,0.43035 -0.009,0.009 -0.0203,0.0141 -0.0339,0.0182 -0.0505,-0.0344 -0.0231,-0.0899 0.0158,-0.12122 0.007,0.0577 0.0501,-0.0207 0.0608,-0.0414 0.0127,-0.0246 0.0379,-0.13758 -0.005,-0.0806 0.005,0.0316 -0.065,0.10021 -0.0858,0.06 -0.04,-0.11495 0.01,-0.23942 0.0768,-0.33878 0.012,-0.0105 0.0231,-0.0155 0.0338,-0.0159 z m -3.51655,-0.14339 c 0.009,10e-4 0.009,0.008 0.0166,0.0291 l -0.0199,0.47961 c -0.0602,-0.0576 -0.0212,-0.13773 -0.0271,-0.20877 -0.007,-0.06 0.0232,-0.12717 -9.9e-4,-0.18249 -0.0442,-0.0153 -0.0481,-0.13573 -0.0222,-0.10094 0.0341,0.0392 0.0366,-0.0197 0.0545,-0.0166 z m 3.49135,0.2327 c -0.009,-3.6e-4 -0.0182,0.007 -0.0262,0.028 -0.0162,0.0457 -0.0338,0.1039 -0.0126,0.15123 0.0463,-0.0137 0.0515,-0.0733 0.0638,-0.1113 0.0118,-0.0254 -0.006,-0.0662 -0.0249,-0.0679 z m -3.36465,-0.0488 c 0.036,-0.002 0.0602,0.0592 0.0769,0.0883 0.0252,0.10094 0.0331,0.11073 0.0213,0.13304 -0.0436,-0.031 -0.0411,-0.0599 -0.045,-0.0719 -0.008,-0.024 -0.013,-0.0423 -0.0298,-0.0673 -0.0307,0.0207 -0.0298,0.0703 -0.0312,0.10404 6.1e-4,-0.0126 0.01,-0.0177 0.036,-0.004 0.0584,0.10158 0.0978,0.233 0.0484,0.34412 l -0.0182,0.008 c -0.0965,-0.0498 -0.10101,-0.15687 -0.11537,-0.24085 -0.005,-0.0969 -9.1e-4,-0.19426 0.0299,-0.28731 0.009,-0.005 0.0182,-0.006 0.0271,-0.006 z m 3.20088,0.17463 c 0.0401,0.004 -0.004,0.27661 -0.0107,0.43202 l -0.0415,0.0509 0.0138,-0.33203 c -0.0436,0.0571 -0.0844,0.068 -0.0543,-0.009 0.0482,-0.10332 0.0767,-0.14299 0.0927,-0.14151 z m -3.19311,0.0695 c -0.0373,0.0353 -0.0221,0.0997 -0.015,0.14405 0.0164,0.0439 0.0593,0.0828 0.0531,0.0149 0.002,-0.0447 0.0128,-0.0922 -0.0217,-0.12984 5e-5,-0.005 -0.008,-0.0154 -0.0167,-0.0291 z m 0.56742,0.56999 0.97011,1.00948 1.04863,-0.92315 z m -0.18783,-0.006 -0.48438,0.0178 0.55878,0.3471 c -0.0171,-0.022 -0.0428,-0.0467 -0.0597,-0.0718 -0.0425,-0.0561 -0.085,-0.11058 -0.16446,-0.13756 -0.0784,-0.0545 -0.034,-0.0432 0.0277,-0.0192 -0.009,-0.0144 -0.008,-0.0208 9.9e-4,-0.0204 0.0179,-0.001 0.0791,0.0364 0.0873,0.0533 l 0.2132,0.25761 0.56753,0.35218 z m 2.39781,0.10256 -0.39418,0.34722 c 0.0583,-0.0219 0.10381,-0.0624 0.15604,-0.0908 0.0219,-0.0101 0.0337,-0.0135 0.039,-0.0132 0.0188,7.9e-4 -0.0507,0.0537 -0.0722,0.0779 -0.0872,0.0733 -0.15054,0.17442 -0.26519,0.21748 l 0.17697,-0.18509 c -0.021,0.009 -0.0547,0.0228 -0.0747,0.029 l -0.37466,0.32996 0.68159,-0.34514 c 0.0505,-0.0505 0.0188,-0.0432 -0.0507,-0.009 l -0.10387,0.0427 c 0.10638,-0.10317 0.24729,-0.17499 0.36922,-0.26413 0.0291,-0.0106 0.0867,-0.0403 0.10021,-0.0405 0.007,-4.3e-4 9.9e-4,0.008 -0.0264,0.0319 l -0.11787,0.12077 c 0.0919,-0.0558 0.007,0.031 -0.042,0.0414 -0.007,0.008 -0.0132,0.0152 -0.0206,0.0219 l 0.49864,-0.25311 z m -1.42071,0.0706 c 0.0125,4.9e-4 0.0241,0.002 0.0366,0.004 l -0.0141,0.34065 -0.11624,-0.005 0.01,-0.23549 c -0.0443,-0.0129 -0.0989,0.009 -0.14296,-0.008 -0.0348,-0.0243 0.0112,-0.053 0.0466,-0.0445 0.0269,3.4e-4 0.0625,0.005 0.0815,-0.0217 0.0314,-0.0231 0.0639,-0.0303 0.0988,-0.0288 z m 0.29568,0.0187 c 0,0 0.009,0.001 0.009,0.002 0.0356,0.008 0.0625,0.005 0.0892,0.007 l 0.22888,0.01 c 0.0126,0.0241 0.005,0.0616 -0.0321,0.0608 -0.0351,0.002 -0.0696,-0.006 -0.10468,-0.002 -0.0421,2e-4 -0.0852,-0.0179 -0.13066,-0.003 -0.0274,0.0123 -0.0385,0.0652 0.007,0.0482 0.0361,-0.007 0.0658,-0.0113 0.0968,-0.003 0.0623,0.0117 0.13316,0.0285 0.16776,0.0795 0.0177,0.0252 0.0218,0.0584 0.003,0.0843 -0.0343,0.0497 -0.10644,0.0615 -0.16677,0.0691 -0.0216,0.002 -0.0425,0.009 -0.0656,0.006 -0.0624,-0.008 -0.13373,-0.0147 -0.17649,-0.0634 -0.026,-0.0207 -0.0245,-0.0569 0.0201,-0.0518 0.0269,3.4e-4 0.0717,5e-5 0.0883,0.0313 0.0256,0.0302 0.0795,0.027 0.11559,0.0207 0.0323,-0.003 0.0679,-0.0175 0.0702,-0.0497 0.007,-0.0327 -0.0253,-0.0577 -0.0591,-0.0639 -0.0503,-0.0203 -0.10506,0.007 -0.15884,0.007 -0.0272,0.008 -0.0806,5.5e-4 -0.079,-0.038 0.0103,-0.0326 0.0295,-0.0624 0.0309,-0.097 5.5e-4,-0.0235 0.0201,-0.0542 0.047,-0.0546 z m 1.19191,0.0903 c -9.8e-4,-0.002 -0.0646,0.0429 -0.0912,0.0598 l -0.14554,0.0968 c 0.0783,-0.0313 0.15066,-0.069 0.20505,-0.12806 0.0242,-0.0194 0.0324,-0.0277 0.0316,-0.0286 z m -2.21739,0.0168 c 0.0268,0.001 0.0701,0.0391 0.0871,0.0588 l 0.2223,0.25405 c -0.0709,-0.0195 -0.1139,-0.0607 -0.15645,-0.11443 -0.0513,-0.0596 -0.0929,-0.13449 -0.18135,-0.16187 -0.0787,-0.0427 -0.0427,-0.0522 0.0186,-0.0165 1.9e-4,-0.0148 9.8e-4,-0.0204 0.01,-0.02 z"
       id="path1022"
       style="fill:#ffffff;stroke-width:0.00838466" /></g></svg>
